<?xml version="1.0" encoding="utf-8"?>
<!-- Generator: Adobe Illustrator 15.0.0, SVG Export Plug-In . SVG Version: 6.00 Build 0)  -->
<!DOCTYPE svg PUBLIC "-//W3C//DTD SVG 1.1//EN" "http://www.w3.org/Graphics/SVG/1.1/DTD/svg11.dtd">
<svg version="1.1" id="custom_shapes" xmlns="http://www.w3.org/2000/svg" xmlns:xlink="http://www.w3.org/1999/xlink" x="0px"
	 y="0px" width="250px" height="250px" viewBox="181 25 250 250" enable-background="new 181 25 250 250" xml:space="preserve">
<g>
	<g>
		<path fill="#0099FF" d="M312.993,57.503l-5.942,2.771c15.424,10.231,28.524,13.042,28.524,13.042L312.993,57.503z"/>
		<path fill="#0099FF" d="M300.702,52.566l1.149-1.678c0.335-0.165,0.669-0.326,1.001-0.485l-3.616-2.533
			c1.285-3.285-0.44-7.662-4.305-10.368c-4.36-3.053-9.792-2.821-12.13,0.519c-2.339,3.34-0.699,8.523,3.661,11.576
			c3.798,2.659,8.407,2.825,11.079,0.617L300.702,52.566z M287.732,47.782c-3.052-2.137-4.199-5.765-2.562-8.103
			c1.637-2.339,5.438-2.501,8.492-0.363c3.052,2.137,4.2,5.765,2.563,8.104C294.587,49.758,290.785,49.921,287.732,47.782z"/>
	</g>
	<path fill="#0099FF" d="M291.984,71.025c4.199-1.958,6.647-5.862,6.075-9.278l40.247-18.768c0,0-15.766,0.579-34.759,9.932
		l-2.969,4.336l-3.699,1.857c-2.202-2.759-6.858-3.455-11.136-1.461c-4.824,2.25-7.339,7.069-5.616,10.765
		C281.851,72.103,287.16,73.275,291.984,71.025z M304.158,55.135c0.077-0.873,0.844-1.518,1.716-1.441
		c0.873,0.076,1.518,0.845,1.442,1.717s-0.846,1.518-1.718,1.441C304.726,56.775,304.082,56.007,304.158,55.135z M282.75,67.187
		c-1.207-2.588,0.554-5.96,3.93-7.535c3.378-1.575,7.094-0.755,8.3,1.832c1.206,2.586-0.554,5.96-3.932,7.534
		C287.671,70.593,283.956,69.772,282.75,67.187z"/>
</g>
<g>
	<g>
		<path fill="#0099FF" d="M213.336,142.841l2.77,5.942c10.23-15.423,13.042-28.524,13.042-28.524L213.336,142.841z"/>
		<path fill="#0099FF" d="M208.398,155.132l-1.678-1.148c-0.164-0.335-0.326-0.668-0.486-1.002l-2.533,3.617
			c-3.285-1.285-7.663,0.44-10.367,4.304c-3.054,4.36-2.822,9.792,0.518,12.13c3.341,2.339,8.523,0.699,11.577-3.66
			c2.659-3.799,2.826-8.408,0.617-11.079L208.398,155.132z M203.614,168.102c-2.136,3.053-5.765,4.199-8.102,2.562
			c-2.338-1.637-2.501-5.438-0.364-8.491c2.137-3.054,5.765-4.199,8.104-2.563C205.59,161.247,205.752,165.049,203.614,168.102z"/>
	</g>
	<path fill="#0099FF" d="M226.858,163.85c-1.959-4.199-5.864-6.647-9.279-6.074l-18.767-40.248c0,0,0.578,15.766,9.931,34.759
		l4.336,2.969l1.859,3.7c-2.759,2.201-3.457,6.856-1.463,11.135c2.25,4.825,7.07,7.339,10.767,5.614
		C227.935,173.982,229.107,168.675,226.858,163.85z M210.967,151.676c-0.874-0.076-1.519-0.844-1.442-1.716
		c0.077-0.873,0.844-1.519,1.717-1.441c0.873,0.075,1.518,0.845,1.441,1.717C212.607,151.107,211.838,151.752,210.967,151.676z
		 M223.019,173.084c-2.588,1.207-5.96-0.552-7.537-3.931c-1.574-3.377-0.755-7.093,1.834-8.299c2.586-1.205,5.959,0.554,7.534,3.932
		C226.426,168.163,225.605,171.879,223.019,173.084z"/>
</g>
<g>
	<g>
		<path fill="#0099FF" d="M298.272,243.466l5.945-2.771c-15.426-10.231-28.528-13.042-28.528-13.042L298.272,243.466z"/>
		<path fill="#0099FF" d="M310.562,248.404l-1.148,1.678c-0.334,0.164-0.668,0.326-1.002,0.485l3.618,2.533
			c-1.286,3.286,0.438,7.664,4.304,10.367c4.359,3.054,9.791,2.823,12.131-0.517c2.338-3.341,0.699-8.523-3.661-11.578
			c-3.798-2.659-8.409-2.825-11.079-0.616L310.562,248.404z M323.533,253.187c3.052,2.138,4.199,5.767,2.561,8.103
			c-1.635,2.339-5.438,2.502-8.489,0.364c-3.054-2.138-4.199-5.764-2.563-8.104C316.68,251.212,320.48,251.05,323.533,253.187z"/>
	</g>
	<path fill="#0099FF" d="M319.281,229.945c-4.201,1.958-6.646,5.862-6.074,9.278l-40.249,18.767c0,0,15.767-0.577,34.758-9.931
		l2.969-4.336l3.699-1.858c2.202,2.758,6.857,3.456,11.139,1.462c4.824-2.249,7.337-7.07,5.611-10.767
		C329.413,228.868,324.106,227.696,319.281,229.945z M307.107,245.834c-0.076,0.875-0.845,1.52-1.717,1.443
		c-0.873-0.077-1.518-0.845-1.441-1.718s0.845-1.517,1.719-1.44C306.539,244.196,307.184,244.963,307.107,245.834z M328.517,233.784
		c1.207,2.587-0.553,5.961-3.932,7.536c-3.376,1.573-7.093,0.755-8.298-1.834c-1.207-2.585,0.553-5.959,3.93-7.534
		C323.594,230.375,327.31,231.198,328.517,233.784z"/>
</g>
<g>
	<g>
		<path fill="#0099FF" d="M399.301,157.561l-2.772-5.942c-10.229,15.424-13.04,28.525-13.04,28.525L399.301,157.561z"/>
		<path fill="#0099FF" d="M404.238,145.271l1.678,1.149c0.164,0.333,0.324,0.667,0.484,1l2.531-3.617
			c3.287,1.285,7.666-0.438,10.369-4.305c3.053-4.358,2.822-9.789-0.518-12.129c-3.341-2.34-8.522-0.699-11.578,3.661
			c-2.658,3.798-2.824,8.408-0.617,11.078L404.238,145.271z M409.021,132.301c2.137-3.053,5.765-4.199,8.102-2.562
			s2.502,5.438,0.363,8.491c-2.137,3.054-5.764,4.197-8.104,2.562C407.047,139.154,406.883,135.353,409.021,132.301z"/>
	</g>
	<path fill="#0099FF" d="M385.777,136.553c1.959,4.2,5.865,6.646,9.278,6.074l18.767,40.248c0,0-0.576-15.766-9.93-34.758
		l-4.336-2.97l-1.859-3.699c2.758-2.202,3.458-6.858,1.462-11.138c-2.249-4.824-7.069-7.338-10.766-5.613
		C384.701,126.42,383.529,131.728,385.777,136.553z M401.667,148.727c0.875,0.076,1.521,0.845,1.444,1.716
		c-0.076,0.873-0.846,1.519-1.719,1.441c-0.872-0.076-1.516-0.844-1.441-1.718C400.029,149.295,400.797,148.649,401.667,148.727z
		 M389.618,127.316c2.585-1.206,5.96,0.553,7.533,3.933c1.575,3.376,0.756,7.093-1.833,8.297c-2.584,1.208-5.959-0.553-7.533-3.93
		C386.209,132.239,387.029,128.524,389.618,127.316z"/>
</g>
<g>
	<g>
		<path fill="#0099FF" d="M245.288,80.017l-2.242,6.161c18.141-3.671,29.392-10.947,29.392-10.947L245.288,80.017z"/>
		<path fill="#0099FF" d="M233.106,85.217l-0.373-1.999c0.119-0.354,0.242-0.703,0.363-1.051l-4.348,0.766
			c-1.414-3.231-5.729-5.107-10.375-4.288c-5.242,0.925-8.918,4.929-8.211,8.944c0.709,4.016,5.533,6.522,10.774,5.597
			c4.566-0.806,7.942-3.947,8.271-7.397L233.106,85.217z M220.554,91.005c-3.67,0.647-7.046-1.107-7.542-3.917
			c-0.496-2.812,2.077-5.614,5.747-6.261c3.67-0.647,7.047,1.106,7.543,3.917C226.797,87.555,224.224,90.359,220.554,91.005z"/>
	</g>
	<path fill="#0099FF" d="M239.995,104.434c1.584-4.354,0.555-8.845-2.266-10.856l15.189-41.729c0,0-10.739,11.557-17.557,31.601
		l0.967,5.165l-1.302,3.929c-3.508-0.394-7.292,2.407-8.907,6.841c-1.82,5.002-0.191,10.188,3.641,11.583
		C233.591,112.36,238.175,109.437,239.995,104.434z M237.366,84.589c-0.562-0.671-0.476-1.669,0.195-2.232
		c0.67-0.563,1.67-0.477,2.232,0.194c0.563,0.67,0.477,1.671-0.195,2.234C238.929,85.348,237.929,85.26,237.366,84.589z
		 M230.751,108.249c-2.684-0.977-3.824-4.605-2.55-8.107c1.274-3.502,4.482-5.55,7.165-4.574c2.681,0.976,3.822,4.606,2.547,8.108
		C236.64,107.178,233.432,109.225,230.751,108.249z"/>
</g>
<g>
	<g>
		<path fill="#0099FF" d="M235.163,210.828l6.16,2.244c-3.671-18.14-10.947-29.392-10.947-29.392L235.163,210.828z"/>
		<path fill="#0099FF" d="M240.363,223.01l-1.999,0.374c-0.353-0.121-0.702-0.242-1.052-0.365l0.767,4.35
			c-3.231,1.414-5.107,5.73-4.287,10.374c0.924,5.243,4.928,8.919,8.943,8.211s6.521-5.532,5.598-10.774
			c-0.807-4.567-3.947-7.944-7.398-8.271L240.363,223.01z M246.151,235.564c0.647,3.669-1.107,7.045-3.917,7.541
			c-2.812,0.496-5.614-2.077-6.262-5.747c-0.647-3.67,1.106-7.045,3.918-7.543C242.701,229.32,245.505,231.894,246.151,235.564z"/>
	</g>
	<path fill="#0099FF" d="M259.581,216.121c-4.355-1.584-8.848-0.554-10.857,2.267l-41.729-15.19c0,0,11.558,10.74,31.601,17.557
		l5.165-0.967l3.931,1.302c-0.395,3.508,2.404,7.292,6.84,8.908c5.003,1.821,10.188,0.19,11.582-3.643
		C267.507,222.525,264.583,217.943,259.581,216.121z M239.735,218.75c-0.672,0.564-1.67,0.478-2.232-0.194s-0.477-1.67,0.195-2.233
		c0.67-0.564,1.67-0.476,2.232,0.195S240.405,218.188,239.735,218.75z M263.396,225.366c-0.977,2.684-4.605,3.825-8.109,2.55
		c-3.5-1.275-5.549-4.482-4.57-7.165c0.977-2.681,4.605-3.823,8.106-2.547C262.325,219.478,264.372,222.685,263.396,225.366z"/>
</g>
<g>
	<g>
		<path fill="#0099FF" d="M366.376,221.922l2.244-6.163c-18.143,3.674-29.395,10.951-29.395,10.951L366.376,221.922z"/>
		<path fill="#0099FF" d="M378.558,216.723l0.373,1.998c-0.119,0.353-0.24,0.703-0.365,1.052l4.351-0.767
			c1.414,3.233,5.729,5.109,10.374,4.288c5.241-0.923,8.92-4.927,8.212-8.943c-0.709-4.016-5.532-6.521-10.775-5.599
			c-4.565,0.805-7.944,3.949-8.271,7.399L378.558,216.723z M391.111,210.933c3.669-0.646,7.047,1.108,7.54,3.918
			c0.497,2.81-2.076,5.615-5.746,6.261c-3.67,0.647-7.045-1.106-7.542-3.917C384.868,214.383,387.441,211.581,391.111,210.933z"/>
	</g>
	<path fill="#0099FF" d="M371.669,197.505c-1.586,4.355-0.554,8.845,2.267,10.856l-15.19,41.73c0,0,10.741-11.557,17.557-31.6
		l-0.968-5.166l1.302-3.93c3.508,0.393,7.293-2.405,8.91-6.843c1.82-5.001,0.188-10.188-3.645-11.581
		C378.072,189.579,373.491,192.502,371.669,197.505z M374.298,217.349c0.564,0.673,0.477,1.672-0.194,2.235
		c-0.672,0.562-1.67,0.476-2.233-0.195c-0.564-0.671-0.476-1.67,0.197-2.234C372.737,216.592,373.735,216.679,374.298,217.349z
		 M380.915,193.689c2.682,0.976,3.824,4.605,2.549,8.108c-1.275,3.5-4.482,5.549-7.165,4.571c-2.681-0.974-3.822-4.604-2.548-8.106
		C375.023,194.76,378.232,192.714,380.915,193.689z"/>
</g>
<g>
	<g>
		<path fill="#0099FF" d="M377.069,89.739l-6.163-2.242c3.673,18.14,10.95,29.391,10.95,29.391L377.069,89.739z"/>
		<path fill="#0099FF" d="M371.87,77.558l1.998-0.374c0.352,0.12,0.701,0.243,1.051,0.365l-0.769-4.348
			c3.233-1.416,5.11-5.73,4.288-10.376c-0.923-5.24-4.926-8.917-8.942-8.21s-6.521,5.531-5.598,10.775
			c0.806,4.565,3.948,7.942,7.397,8.27L371.87,77.558z M366.081,65.004c-0.648-3.669,1.107-7.045,3.916-7.541
			c2.811-0.495,5.615,2.077,6.262,5.747c0.648,3.67-1.107,7.043-3.918,7.542C369.53,71.247,366.727,68.674,366.081,65.004z"/>
	</g>
	<path fill="#0099FF" d="M352.651,84.447c4.355,1.585,8.847,0.552,10.855-2.265l41.73,15.189c0,0-11.556-10.741-31.6-17.557
		l-5.166,0.967l-3.93-1.301c0.393-3.507-2.404-7.294-6.842-8.909c-5.002-1.821-10.188-0.19-11.582,3.643
		C344.726,78.043,347.649,82.625,352.651,84.447z M372.495,81.819c0.673-0.565,1.672-0.478,2.234,0.192
		c0.564,0.671,0.477,1.672-0.195,2.234c-0.671,0.563-1.669,0.475-2.234-0.196C371.739,83.379,371.825,82.38,372.495,81.819z
		 M348.837,75.2c0.975-2.681,4.604-3.824,8.107-2.546c3.5,1.273,5.549,4.48,4.57,7.163c-0.973,2.681-4.605,3.823-8.105,2.548
		C349.907,81.092,347.86,77.885,348.837,75.2z"/>
</g>
</svg>
