<?xml version="1.0" encoding="utf-8"?>
<!-- Generator: Adobe Illustrator 15.0.0, SVG Export Plug-In . SVG Version: 6.00 Build 0)  -->
<!DOCTYPE svg PUBLIC "-//W3C//DTD SVG 1.1//EN" "http://www.w3.org/Graphics/SVG/1.1/DTD/svg11.dtd">
<svg version="1.1" xmlns="http://www.w3.org/2000/svg" xmlns:xlink="http://www.w3.org/1999/xlink" x="0px" y="0px" width="250px"
	 height="250px" viewBox="181 25 250 250" enable-background="new 181 25 250 250" xml:space="preserve">
<g id="Layer_4">
	<g>
		<g>
			<g>
				<path fill="#0099FF" d="M251.721,49.003l9.336,19.386l8.791-4.233c-2.149-4.463-5.512-11.445-9.336-19.386L251.721,49.003z"/>
			</g>
			<g>
				<path fill="#0099FF" d="M261.774,69.878l1.758,3.65l8.79-4.233c0,0-0.642-1.333-1.758-3.65L261.774,69.878z"/>
			</g>
		</g>
		<g>
			<polygon fill="#0099FF" points="279.41,96.644 272.475,82.222 273.559,81.701 280.496,96.131 278.102,79.32 273.043,73.203 
				266.137,76.528 267.688,84.193 			"/>
		</g>
	</g>
	<g>
		<g>
			<g>
				<path fill="#0099FF" d="M192.716,129.527l20.978,4.788l2.171-9.511c-4.828-1.102-12.384-2.827-20.977-4.788L192.716,129.527z"/>
			</g>
			<g>
				<path fill="#0099FF" d="M215.305,134.684l3.95,0.901l2.172-9.512c0,0-1.442-0.329-3.95-0.901L215.305,134.684z"/>
			</g>
		</g>
		<g>
			<polygon fill="#0099FF" points="247.228,137.583 231.629,134.013 231.896,132.842 247.504,136.413 232.867,127.804 
				224.93,127.946 223.225,135.419 230.186,138.985 			"/>
		</g>
	</g>
	<g>
		<g>
			<g>
				<path fill="#0099FF" d="M218.883,225.866l16.824-13.417l-6.084-7.627c-3.871,3.088-9.931,7.92-16.821,13.416L218.883,225.866z"
					/>
			</g>
			<g>
				<path fill="#0099FF" d="M236.999,211.419l3.167-2.525l-6.082-7.629c0,0-1.156,0.922-3.168,2.526L236.999,211.419z"/>
			</g>
		</g>
		<g>
			<polygon fill="#0099FF" points="259.169,188.27 246.652,198.239 245.903,197.3 258.427,187.324 242.57,193.399 237.732,199.694 
				242.511,205.687 249.639,202.467 			"/>
		</g>
	</g>
	<g>
		<g>
			<g>
				<path fill="#0099FF" d="M310.52,265.473v-21.518l-9.757,0.001c0.001,4.952,0,12.702,0.001,21.516L310.52,265.473z"/>
			</g>
			<g>
				<path fill="#0099FF" d="M310.52,242.303v-4.052l-9.758,0c0,0,0.001,1.479,0.002,4.052L310.52,242.303z"/>
			</g>
		</g>
		<g>
			<polygon fill="#0099FF" points="306.242,210.536 306.233,226.537 305.031,226.538 305.041,210.527 299.905,226.711 
				301.81,234.418 309.474,234.419 311.401,226.839 			"/>
		</g>
	</g>
	<g>
		<g>
			<g>
				<path fill="#0099FF" d="M398.619,218.524l-16.823-13.417l-6.081,7.629c3.871,3.088,9.93,7.92,16.822,13.414L398.619,218.524z"/>
			</g>
			<g>
				<path fill="#0099FF" d="M380.504,204.077l-3.168-2.525l-6.083,7.627c0,0,1.156,0.921,3.167,2.526L380.504,204.077z"/>
			</g>
		</g>
		<g>
			<polygon fill="#0099FF" points="353.001,187.615 365.507,197.599 364.756,198.539 352.245,188.549 361.696,202.655 
				368.91,205.971 373.688,199.979 368.965,193.746 			"/>
		</g>
	</g>
	<g>
		<g>
			<g>
				<path fill="#0099FF" d="M416.844,120.372l-20.979,4.789l2.173,9.511c4.827-1.102,12.383-2.825,20.976-4.789L416.844,120.372z"/>
			</g>
			<g>
				<path fill="#0099FF" d="M394.253,125.528l-3.949,0.901l2.171,9.512c0,0,1.44-0.329,3.949-0.9L394.253,125.528z"/>
			</g>
		</g>
		<g>
			<polygon fill="#0099FF" points="364.234,136.767 379.838,133.214 380.104,134.387 364.494,137.939 381.414,139.346 
				388.504,135.773 386.801,128.302 378.981,128.108 			"/>
		</g>
	</g>
	<g>
		<g>
			<g>
				<path fill="#0099FF" d="M351.467,44.928l-9.335,19.387l8.788,4.232c2.15-4.462,5.513-11.443,9.334-19.385L351.467,44.928z"/>
			</g>
			<g>
				<path fill="#0099FF" d="M341.414,65.804l-1.759,3.65l8.792,4.233c0,0,0.64-1.332,1.757-3.648L341.414,65.804z"/>
			</g>
		</g>
		<g>
			<polygon fill="#0099FF" points="331.483,96.28 338.436,81.865 339.518,82.39 332.562,96.809 344.212,84.457 345.84,76.687 
				338.936,73.36 333.908,79.353 			"/>
		</g>
	</g>
</g>
<g id="Layer_5">
	<g>
		<g>
			<path fill="#0099FF" d="M304.062,52.853c0,25.929,0,26.239,0,31.956c1.942,0.078,3.875,0,3.875,0V52.853l-1.933-3.71
				L304.062,52.853z"/>
		</g>
		<g>
			<path fill="#0099FF" d="M314.74,42.234h-7.053l3.531-6.115l-1.679-0.969c-1.404,2.432-2.562,4.438-3.535,6.124
				c-1.854-3.21-2.77-4.797-3.535-6.124c-0.859,0.45-1.679,0.969-1.679,0.969l3.531,6.116h-7.079v1.938c2.816,0,5.138,0,7.088,0
				c-1.856,3.215-2.772,4.802-3.539,6.13c0.819,0.519,1.678,0.969,1.678,0.969l3.535-6.122l3.534,6.122l1.679-0.969
				c-1.406-2.435-2.565-4.443-3.539-6.13c3.701,0,5.53,0,7.062,0C314.779,43.204,314.74,42.234,314.74,42.234z"/>
		</g>
	</g>
	<g>
		<g>
			<path fill="#0099FF" d="M228.778,90.815c20.271,16.166,20.515,16.359,24.983,19.924c1.272-1.47,2.416-3.03,2.416-3.03
				l-24.983-19.924l-4.106-0.802L228.778,90.815z"/>
		</g>
		<g>
			<path fill="#0099FF" d="M227.132,75.847l-4.396,5.514l-2.58-6.574l-1.804,0.708c1.026,2.615,1.872,4.771,2.583,6.583
				c-3.666-0.553-5.477-0.826-6.991-1.055c-0.185,0.953-0.29,1.917-0.29,1.917l6.983,1.053l-4.413,5.534l1.515,1.208
				c1.756-2.202,3.204-4.017,4.419-5.542c1.357,3.456,2.026,5.162,2.586,6.589c0.917-0.317,1.805-0.708,1.805-0.708l-2.582-6.581
				l6.988,1.054l0.289-1.917c-2.779-0.419-5.072-0.765-6.998-1.055c2.307-2.894,3.447-4.324,4.402-5.521
				C227.916,76.42,227.132,75.847,227.132,75.847z"/>
		</g>
	</g>
	<g>
		<g>
			<path fill="#0099FF" d="M211.519,173.344c25.277-5.769,25.58-5.839,31.153-7.11c-0.356-1.912-0.862-3.778-0.862-3.778
				l-31.154,7.111l-3.188,2.71L211.519,173.344z"/>
		</g>
		<g>
			<path fill="#0099FF" d="M198.79,165.298l1.569,6.875l-6.748-2.082l-0.571,1.852c2.685,0.828,4.897,1.51,6.757,2.084
				c-2.718,2.521-4.061,3.767-5.184,4.808c0.631,0.739,1.318,1.422,1.318,1.422l5.177-4.803l1.575,6.9l1.889-0.431
				c-0.627-2.746-1.143-5.01-1.576-6.91c3.547,1.093,5.299,1.634,6.764,2.087c0.324-0.916,0.571-1.853,0.571-1.853l-6.755-2.084
				l5.182-4.807l-1.318-1.421c-2.061,1.912-3.761,3.489-5.188,4.813c-0.825-3.608-1.231-5.391-1.571-6.884
				C199.726,165.043,198.79,165.298,198.79,165.298z"/>
		</g>
	</g>
	<g>
		<g>
			<path fill="#0099FF" d="M265.281,238.294c11.25-23.36,11.385-23.64,13.865-28.79c-1.717-0.913-3.492-1.682-3.492-1.682
				l-13.864,28.791l0.132,4.182L265.281,238.294z"/>
		</g>
		<g>
			<path fill="#0099FF" d="M251.054,243.229l6.354,3.06l-5.835,3.978l1.092,1.601c2.32-1.583,4.233-2.888,5.843-3.983
				c0.276,3.697,0.412,5.523,0.526,7.05c0.972-0.032,1.935-0.144,1.935-0.144l-0.527-7.042l6.377,3.071l0.84-1.745
				c-2.537-1.222-4.629-2.23-6.385-3.076c3.066-2.091,4.582-3.124,5.849-3.987c-0.514-0.824-1.092-1.602-1.092-1.602l-5.842,3.981
				l-0.526-7.047l-1.934,0.145c0.21,2.803,0.383,5.115,0.528,7.058c-3.335-1.604-4.982-2.398-6.362-3.064
				C251.439,242.338,251.054,243.229,251.054,243.229z"/>
		</g>
	</g>
	<g>
		<g>
			<path fill="#0099FF" d="M349.582,236.757c-11.25-23.361-11.385-23.641-13.865-28.791c-1.783,0.773-3.492,1.682-3.492,1.682
				l13.865,28.791l3.352,2.504L349.582,236.757z"/>
		</g>
		<g>
			<path fill="#0099FF" d="M344.57,250.956l6.354-3.059l-0.529,7.042l1.934,0.145c0.209-2.801,0.381-5.111,0.529-7.052
				c3.062,2.089,4.574,3.122,5.84,3.984c0.58-0.78,1.094-1.603,1.094-1.603l-5.834-3.979l6.377-3.07l-0.842-1.745
				c-2.537,1.222-4.631,2.229-6.387,3.074c0.277-3.701,0.416-5.53,0.531-7.059c-0.965-0.112-1.934-0.145-1.934-0.145l-0.529,7.049
				l-5.838-3.982l-1.094,1.602c2.322,1.583,4.238,2.89,5.848,3.987c-3.334,1.607-4.982,2.4-6.363,3.064
				C344.113,250.1,344.57,250.956,344.57,250.956z"/>
		</g>
	</g>
	<g>
		<g>
			<path fill="#0099FF" d="M400.941,169.889c-25.279-5.77-25.582-5.838-31.156-7.111c-0.508,1.876-0.861,3.779-0.861,3.779
				l31.154,7.11l4.047-1.059L400.941,169.889z"/>
		</g>
		<g>
			<path fill="#0099FF" d="M408.916,182.66l1.57-6.875l5.176,4.804l1.318-1.421c-2.059-1.91-3.758-3.484-5.182-4.811
				c3.541-1.092,5.293-1.629,6.756-2.082c-0.248-0.94-0.57-1.854-0.57-1.854l-6.75,2.081l1.576-6.9l-1.889-0.43
				c-0.627,2.746-1.145,5.01-1.58,6.91c-2.721-2.524-4.064-3.773-5.188-4.817c-0.688,0.685-1.318,1.422-1.318,1.422l5.182,4.809
				l-6.754,2.081l0.57,1.854c2.688-0.829,4.902-1.512,6.764-2.086c-0.822,3.609-1.229,5.392-1.57,6.886
				C407.963,182.483,408.916,182.66,408.916,182.66z"/>
		</g>
	</g>
	<g>
		<g>
			<path fill="#0099FF" d="M380.684,88.042c-20.273,16.167-20.516,16.361-24.986,19.926c1.15,1.567,2.418,3.03,2.418,3.03
				L383.1,91.074l1.695-3.824L380.684,88.042z"/>
		</g>
		<g>
			<path fill="#0099FF" d="M395.641,89.771l-4.396-5.514l6.984-1.051l-0.291-1.917c-2.775,0.418-5.066,0.766-6.99,1.051
				c1.354-3.449,2.025-5.154,2.584-6.58c-0.889-0.392-1.805-0.71-1.805-0.71l-2.582,6.575l-4.412-5.534l-1.514,1.208
				c1.756,2.202,3.203,4.018,4.418,5.543c-3.67,0.553-5.484,0.825-7.002,1.053c0.107,0.964,0.291,1.917,0.291,1.917l6.99-1.053
				l-2.584,6.578l1.805,0.71c1.027-2.618,1.875-4.775,2.586-6.589c2.309,2.893,3.451,4.322,4.404,5.521
				C394.908,90.406,395.641,89.771,395.641,89.771z"/>
		</g>
	</g>
</g>
</svg>
