<?xml version="1.0" encoding="utf-8"?>
<!-- Generator: Adobe Illustrator 15.0.0, SVG Export Plug-In . SVG Version: 6.00 Build 0)  -->
<!DOCTYPE svg PUBLIC "-//W3C//DTD SVG 1.1//EN" "http://www.w3.org/Graphics/SVG/1.1/DTD/svg11.dtd">
<svg version="1.1" id="photography" xmlns="http://www.w3.org/2000/svg" xmlns:xlink="http://www.w3.org/1999/xlink" x="0px"
	 y="0px" width="250px" height="250px" viewBox="181 25 250 250" enable-background="new 181 25 250 250" xml:space="preserve">
<path fill="#0099FF" d="M322.904,46.358l-2.195-0.037l-3.074-4.134h-10.757l-2.854,4.171h-14.928c-4.365,0-7.903,3.538-7.903,7.903
	v16.904c0,4.365,3.539,7.903,7.903,7.903h33.809c4.364,0,7.902-3.538,7.902-7.903V54.261
	C330.807,49.896,327.269,46.358,322.904,46.358z M295.674,73.262c0,0.256-0.246,0.464-0.549,0.464s-0.549-0.208-0.549-0.464V61.567
	c0-0.256,0.246-0.464,0.549-0.464s0.549,0.208,0.549,0.464V73.262z M292.983,57.042h-4.684c-1.697,0-3.073-1.376-3.073-3.074
	c0-1.697,1.376-3.073,3.073-3.073h4.684c1.697,0,3.074,1.376,3.074,3.073C296.057,55.666,294.68,57.042,292.983,57.042z
	 M312.192,75.227c-6.911,0-12.513-5.603-12.513-12.513c0-6.911,5.602-12.513,12.513-12.513s12.513,5.602,12.513,12.513
	C324.705,69.624,319.104,75.227,312.192,75.227z"/>
<path fill="#0099FF" d="M202.192,132.93l-0.037,2.195l-4.134,3.074v10.757l4.171,2.854v14.928c0,4.365,3.538,7.903,7.903,7.903
	h16.904c4.365,0,7.903-3.539,7.903-7.903V132.93c0-4.364-3.538-7.902-7.903-7.902h-16.904
	C205.73,125.027,202.192,128.565,202.192,132.93z M229.096,160.16c0.256,0,0.464,0.246,0.464,0.549s-0.208,0.549-0.464,0.549
	h-11.695c-0.256,0-0.464-0.246-0.464-0.549s0.208-0.549,0.464-0.549H229.096z M212.875,162.851v4.684
	c0,1.697-1.376,3.073-3.074,3.073c-1.697,0-3.073-1.376-3.073-3.073v-4.684c0-1.697,1.376-3.074,3.073-3.074
	C211.5,159.777,212.875,161.154,212.875,162.851z M231.06,143.642c0,6.911-5.603,12.513-12.513,12.513
	c-6.911,0-12.513-5.602-12.513-12.513s5.602-12.513,12.513-12.513C225.458,131.129,231.06,136.73,231.06,143.642z"/>
<path fill="#0099FF" d="M288.763,253.642l2.195,0.037l3.074,4.134h10.757l2.855-4.171h14.928c4.364,0,7.902-3.538,7.902-7.903
	v-16.904c0-4.365-3.538-7.903-7.902-7.903h-33.809c-4.364,0-7.902,3.538-7.902,7.903v16.904
	C280.861,250.104,284.399,253.642,288.763,253.642z M315.994,226.738c0-0.256,0.246-0.464,0.549-0.464s0.549,0.208,0.549,0.464
	v11.695c0,0.256-0.246,0.464-0.549,0.464s-0.549-0.208-0.549-0.464V226.738z M318.685,242.958h4.684
	c1.697,0,3.073,1.376,3.073,3.074c0,1.697-1.376,3.073-3.073,3.073h-4.684c-1.696,0-3.073-1.376-3.073-3.073
	C315.611,244.334,316.988,242.958,318.685,242.958z M299.475,224.774c6.911,0,12.513,5.603,12.513,12.513
	c0,6.911-5.602,12.513-12.513,12.513s-12.513-5.602-12.513-12.513C286.962,230.376,292.564,224.774,299.475,224.774z"/>
<path fill="#0099FF" d="M409.476,167.071l0.037-2.195l4.134-3.074v-10.757l-4.171-2.855v-14.928c0-4.364-3.538-7.902-7.903-7.902
	h-16.903c-4.365,0-7.903,3.538-7.903,7.902v33.809c0,4.364,3.538,7.902,7.903,7.902h16.903
	C405.938,174.973,409.476,171.435,409.476,167.071z M382.572,139.84c-0.257,0-0.465-0.246-0.465-0.549s0.208-0.549,0.465-0.549
	h11.694c0.257,0,0.464,0.246,0.464,0.549s-0.207,0.549-0.464,0.549H382.572z M398.792,137.149v-4.684
	c0-1.697,1.376-3.073,3.073-3.073s3.074,1.376,3.074,3.073v4.684c0,1.696-1.377,3.073-3.074,3.073S398.792,138.846,398.792,137.149z
	 M380.607,156.359c0-6.911,5.603-12.513,12.514-12.513c6.91,0,12.513,5.602,12.513,12.513s-5.603,12.513-12.513,12.513
	C386.21,168.872,380.607,163.27,380.607,156.359z"/>
<polygon fill="#0099FF" points="246.785,87.012 260,84.408 246.785,81.805 261.183,63.726 243.103,78.122 240.5,61.908 
	237.896,78.122 219.816,63.726 234.213,81.805 220,84.409 234.213,87.012 219.816,105.091 237.896,90.694 240.5,103.908 
	243.103,90.694 265.333,109.167 "/>
<polygon fill="#0099FF" points="246.527,212.73 256.152,199.424 242.846,209.048 240.242,181.334 237.638,209.048 228,203.334 
	233.956,212.73 210.992,215.334 233.956,217.938 224.332,231.245 237.638,221.62 240.242,244.584 242.846,221.62 261.5,236.167 
	246.527,217.938 269.492,215.334 "/>
<polygon fill="#0099FF" points="373.771,209.306 371.168,190.501 368.563,209.306 350.484,194.909 364.882,212.988 352.668,215.592 
	364.882,218.196 350.484,236.275 368.563,221.878 371.168,238.092 373.771,221.878 391.851,236.275 377.454,218.196 
	390.668,215.592 377.453,212.988 394.501,192.334 "/>
<polygon fill="#0099FF" points="365.14,87.27 355.516,100.576 368.822,90.952 371.426,113.916 374.029,90.952 383.335,96.333 
	377.711,87.27 400.676,84.666 377.711,82.062 384.002,72.167 374.029,78.38 371.426,55.416 368.822,78.38 352.502,65.667 
	365.14,82.062 337.002,84.666 "/>
</svg>
