<?xml version="1.0" encoding="utf-8"?>
<!-- Generator: Adobe Illustrator 15.0.0, SVG Export Plug-In . SVG Version: 6.00 Build 0)  -->
<!DOCTYPE svg PUBLIC "-//W3C//DTD SVG 1.1//EN" "http://www.w3.org/Graphics/SVG/1.1/DTD/svg11.dtd">
<svg version="1.1" id="logos" xmlns="http://www.w3.org/2000/svg" xmlns:xlink="http://www.w3.org/1999/xlink" x="0px" y="0px"
	 width="250px" height="250px" viewBox="181 25 250 250" enable-background="new 181 25 250 250" xml:space="preserve">
<g>
	<path fill="#0099FF" d="M374.698,85.574l12.839-0.031l0.007,12.86l-12.836-0.01L374.698,85.574z M374.684,68.564l12.818-0.01
		l0.03,12.839l-12.879,0.03L374.684,68.564z M357.673,68.578l12.901,0.03l-0.011,12.839l-12.817,0.009L357.673,68.578z"/>
</g>
<g>
	<path fill="#0099FF" d="M237.04,98.392l-12.836,0.01l0.007-12.86l12.839,0.031L237.04,98.392z M237.095,81.423l-12.879-0.03
		l0.03-12.839l12.818,0.01L237.095,81.423z M254.002,81.456l-12.817-0.009l-0.011-12.839l12.901-0.03L254.002,81.456z"/>
</g>
<g>
	<path fill="#0099FF" d="M374.708,201.641l12.836-0.01l-0.007,12.86l-12.839-0.031L374.708,201.641z M374.653,218.61l12.879,0.03
		l-0.03,12.839l-12.818-0.01L374.653,218.61z M357.746,218.577l12.817,0.009l0.011,12.839l-12.901,0.03L357.746,218.577z"/>
</g>
<g>
	<path fill="#0099FF" d="M237.05,214.459l-12.839,0.031l-0.007-12.86l12.836,0.01L237.05,214.459z M237.064,231.469l-12.818,0.01
		l-0.03-12.839l12.879-0.03L237.064,231.469z M254.075,231.456l-12.901-0.03l0.011-12.839l12.817-0.009L254.075,231.456z"/>
</g>
<g>
	<polygon fill="#0099FF" points="418.187,146.438 418.187,128.046 402.289,137.236 	"/>
	<polygon fill="#0099FF" points="395.101,141.392 380.381,149.9 395.101,158.42 	"/>
	<polygon fill="#0099FF" points="402.303,162.589 418.187,171.782 418.187,153.406 	"/>
</g>
<g>
	<polygon fill="#0099FF" points="193.247,146.438 193.247,128.046 209.145,137.236 	"/>
	<polygon fill="#0099FF" points="216.333,141.392 231.053,149.9 216.333,158.42 	"/>
	<polygon fill="#0099FF" points="209.131,162.589 193.247,171.782 193.247,153.406 	"/>
</g>
<g>
	<polygon fill="#0099FF" points="309.193,262.384 327.585,262.384 318.395,246.486 	"/>
	<polygon fill="#0099FF" points="314.239,239.298 305.73,224.578 297.21,239.298 	"/>
	<polygon fill="#0099FF" points="293.042,246.5 283.849,262.384 302.225,262.384 	"/>
</g>
<g>
	<polygon fill="#0099FF" points="309.193,37.444 327.585,37.444 318.395,53.342 	"/>
	<polygon fill="#0099FF" points="314.239,60.53 305.73,75.25 297.21,60.53 	"/>
	<polygon fill="#0099FF" points="293.042,53.328 283.849,37.444 302.225,37.444 	"/>
</g>
</svg>
