<?xml version="1.0" encoding="utf-8"?>
<!-- Generator: Adobe Illustrator 15.0.0, SVG Export Plug-In . SVG Version: 6.00 Build 0)  -->
<!DOCTYPE svg PUBLIC "-//W3C//DTD SVG 1.1//EN" "http://www.w3.org/Graphics/SVG/1.1/DTD/svg11.dtd">
<svg version="1.1" id="Layer_1" xmlns="http://www.w3.org/2000/svg" xmlns:xlink="http://www.w3.org/1999/xlink" x="0px" y="0px"
	 width="250px" height="250px" viewBox="181 25 250 250" enable-background="new 181 25 250 250" xml:space="preserve">
<circle fill="#0099FF" cx="305.86" cy="48.802" r="13.65"/>
<path fill="#0099FF" d="M331.107,82.179C328,66.732,305.86,66.751,305.86,66.751S286,65.554,280.559,82.306l50.549,0.141"/>
<circle fill="#0099FF" cx="305.806" cy="251.607" r="13.65"/>
<path fill="#0099FF" d="M280.559,218.23c3.107,15.446,25.247,15.428,25.247,15.428s19.86,1.197,25.302-15.555l-50.549-0.141"/>
<circle fill="#0099FF" cx="407.236" cy="150.232" r="13.65"/>
<path fill="#0099FF" d="M373.859,175.479c15.446-3.107,15.428-25.247,15.428-25.247s1.197-19.86-15.555-25.302l-0.141,50.549"/>
<circle fill="#0099FF" cx="204.431" cy="150.178" r="13.65"/>
<path fill="#0099FF" d="M237.808,124.931c-15.446,3.107-15.428,25.247-15.428,25.247s-1.197,19.86,15.555,25.302l0.141-50.549"/>
<path fill="#0099FF" d="M268.378,238.096c-4.048-2.51-8.212-2.463-8.212-2.463c1.411,4.846,3.791,7.139,6.162,8.142
	c-3.082,2.798-3.697,5.981-3.697,5.981c3.15,0.41,5.354-0.25,6.903-1.379c-1.864,5.062-0.026,8.963-0.026,8.963
	c4.227-2.311,5.257-5.326,5.108-7.955c1.867,1.445,4.555,2.594,8.442,2.9c0,0-0.596-3.61-6.162-7.535
	c2.355,0.337,5.043-0.084,7.554-2.361c0,0-3.465-5.111-10.651-2.432c3.031-2.145,3.644-5.029,3.644-5.029
	c-2.747-0.412-4.534,0.297-5.716,1.39c-0.833-9.092,4.575-19.464,4.575-19.464l-4.237-0.074
	C267.332,224.564,267.79,233.729,268.378,238.096z"/>
<polygon fill="#0099FF" points="339.948,247.08 338.642,252.131 337.221,247.111 333.392,250.652 334.91,245.662 329.773,246.572 
	333.749,243.194 328.936,241.182 334.107,240.49 331.145,236.195 335.869,238.41 335.699,233.195 338.477,237.611 341.154,233.133 
	341.102,238.35 345.775,236.029 342.911,240.391 348.098,240.965 343.33,243.086 347.382,246.372 342.226,245.58 343.857,250.535 
	"/>
<path fill="#0099FF" d="M208.329,176.096l-1.415,4.034c-1.839,1.421-6.429,6.104-2.771,15.456c0,0,7.635-4.658,3.746-15.213
	l1.384-3.947c0.049-0.141,0.032-0.288-0.035-0.408c-0.058-0.104-0.151-0.187-0.271-0.229
	C208.706,175.697,208.42,175.834,208.329,176.096z"/>
<path fill="#0099FF" d="M236.559,107.816c-1.75,0.596-7.08,2.505-6.733,10.485C229.826,118.302,236.771,116.76,236.559,107.816"/>
<path fill="#0099FF" d="M223.732,209.051l-1.067-3.229c0.469-1.788,1.086-6.966-5.759-11.083c0,0-2.548,6.643,5.026,11.402
	l1.044,3.159c0.038,0.112,0.121,0.198,0.222,0.241c0.085,0.037,0.186,0.043,0.282,0.014
	C223.688,209.484,223.801,209.258,223.732,209.051z"/>
<path fill="#0099FF" d="M215.412,93.648l2.919,1.744c1.847-0.068,7.036,0.456,9.564,8.033c0,0-7.037,1.042-10.034-7.387
	l-2.857-1.707c-0.1-0.062-0.167-0.16-0.186-0.269c-0.018-0.092-0.002-0.19,0.048-0.278
	C214.979,93.598,215.224,93.536,215.412,93.648z"/>
<path fill="#0099FF" d="M221.55,123.019c0.918-2.136,3.628-8.718-4.109-15.118C217.44,107.9,213.026,115.679,221.55,123.019"/>
<path fill="#0099FF" d="M218.964,181.787c0.693-1.899,2.725-7.751-4.312-12.933C214.652,168.854,211.199,175.83,218.964,181.787"/>
<path fill="#0099FF" d="M229.788,182.019c-1.169,1.65-3.798,6.714,1.624,13.567C231.411,195.586,235.708,189.812,229.788,182.019"/>
<path fill="#0099FF" d="M204.753,128.781l1.309-3.483c1.628-1.2,5.711-5.185,2.708-13.393c0,0-6.731,3.907-3.552,13.164l-1.28,3.406
	c-0.045,0.122-0.034,0.251,0.022,0.357c0.048,0.091,0.128,0.166,0.231,0.204C204.418,129.12,204.669,129.008,204.753,128.781z"/>
<path fill="#0099FF" d="M382.268,198.848c1.081-3.623-0.377-6.413-1.302-7.719c0.866-0.115,1.75-0.281,2.614-0.575
	c0.557-0.146,1.088-0.385,1.621-0.621l0.747-0.324l0.764-0.292c1.684-0.61,3.437-0.997,5.146-1.198
	c-4.893,6.455,0.847,9.07,0.847,9.07c0.441-0.739,0.749-1.446,0.95-2.124c1.088-3.646-0.885-6.29-1.479-6.979
	c2.379-0.246,4.654-0.127,6.492,0.339c0.361,0.083,0.71,0.146,1.05,0.203c-2.201,2.288,0.863,3.651,0.863,3.651
	c-0.409,3.4,3.052,2.449,3.052,2.449c4.289,2.46,4.721-1.95,4.721-1.95c4.061-1.153,1.386-5.039,1.386-5.039
	c1.082-4.211-2.993-3.666-2.993-3.666c-3.549-2.754-4.871,1.025-4.871,1.025c-2.107,0.018-2.255,1.763-2.17,2.755
	c-0.26-0.091-0.516-0.183-0.8-0.264c-1.062-0.331-2.289-0.548-3.602-0.659c2.057-0.741,2.948-1.939,3.288-3.082
	c0.469-1.572-0.105-3.033-0.105-3.033c-4.453,1.188-5.358,4.612-5.543,6.037c-1.842,0.04-3.78,0.306-5.683,0.816
	c1.949-1.236,2.895-2.543,3.255-3.753c0.771-2.582-1.045-4.715-1.045-4.715c-4.727,3.178-3.958,7.649-3.635,8.885l-0.088,0.029
	l-0.808,0.296c-0.501,0.187-0.995,0.381-1.519,0.484c-1.015,0.283-2.065,0.38-3.072,0.432c-1.607,0.068-3.128-0.089-4.487-0.331
	c2.946-1.669,4.312-3.475,4.807-5.131c0.96-3.228-1.308-5.895-1.308-5.895c-5.564,3.744-5.031,8.929-4.613,10.806
	c-1.549-0.346-2.815-0.761-3.687-1.079c-0.901-0.334-1.36-0.551-1.36-0.551c-0.017-0.01-0.039-0.018-0.056-0.025
	c-0.514-0.207-1.095,0.042-1.301,0.554c-0.206,0.513-0.118,1.634,0.396,1.839l0.025,0.011c0,0,0.571,0.23,1.528,0.52
	c0.969,0.292,2.366,0.667,4.077,0.94c1.528,0.243,3.329,0.39,5.248,0.265c-4.936,7.201,1.517,10.127,1.517,10.127
	C381.659,200.5,382.027,199.654,382.268,198.848z"/>
<path fill="#0099FF" d="M386.518,110.107l-0.65-0.467l-0.741-0.34c-0.527-0.247-1.053-0.498-1.606-0.656
	c-0.858-0.312-1.737-0.497-2.602-0.631c0.953-1.286,2.472-4.043,1.47-7.688c-0.223-0.812-0.572-1.665-1.076-2.555
	c0,0-6.515,2.785-1.736,10.092c-1.916-0.167-3.72-0.059-5.253,0.151c-1.717,0.235-3.122,0.58-4.097,0.851
	c-0.964,0.269-1.54,0.486-1.54,0.486l-0.025,0.01c-0.518,0.194-0.63,1.313-0.435,1.83c0.194,0.516,0.771,0.778,1.288,0.582
	c0.017-0.007,0.039-0.014,0.056-0.024c0,0,0.464-0.206,1.372-0.521c0.878-0.3,2.154-0.687,3.71-0.999
	c-0.459,1.868-1.105,7.041,4.377,10.904c0,0,2.325-2.618,1.435-5.865c-0.457-1.667-1.784-3.501-4.693-5.235
	c1.364-0.212,2.888-0.335,4.494-0.233L386.518,110.107z"/>
<path fill="#0099FF" d="M380.478,110.596"/>
<path fill="#0099FF" d="M347.638,56.372l-0.922-0.388l0.625-0.347c0.485-0.269,0.66-0.88,0.392-1.365
	c-0.269-0.485-0.879-0.659-1.365-0.391l-2.008,1.113l-3.85-1.618l3.017-2.291l2.572,0.669c0.128,0.033,0.256,0.041,0.379,0.025
	c0.396-0.05,0.739-0.334,0.846-0.744c0.14-0.536-0.182-1.085-0.719-1.224l-1.043-0.272l1.106-0.84
	c0.442-0.335,0.527-0.966,0.192-1.407c-0.334-0.441-0.964-0.527-1.406-0.192l-1.052,0.798l-0.016-0.837
	c-0.01-0.554-0.467-0.996-1.022-0.985c-0.547,0.005-0.995,0.467-0.984,1.021l0.041,2.305l-3.125,2.374l-0.479-3.788l1.739-1.764
	c0.389-0.396,0.384-1.031-0.011-1.42c-0.395-0.388-1.027-0.385-1.42,0.01l-0.629,0.638l-0.171-1.349
	c-0.069-0.55-0.571-0.939-1.121-0.87c-0.551,0.07-0.94,0.572-0.87,1.122l0.188,1.495l-0.887-0.491
	c-0.485-0.268-1.097-0.092-1.365,0.392c-0.269,0.485-0.093,1.096,0.393,1.365l2.172,1.203l0.469,3.709l-3.619-1.521l-0.534-2.243
	c-0.128-0.54-0.665-0.876-1.209-0.744c-0.54,0.129-0.873,0.67-0.744,1.209l0.194,0.813l-1.218-0.511
	c-0.512-0.215-1.099,0.026-1.313,0.537s0.024,1.1,0.536,1.314l1.281,0.539l-0.943,0.523c-0.485,0.269-0.66,0.879-0.392,1.364
	c0.205,0.37,0.609,0.56,1.005,0.51c0.123-0.016,0.244-0.055,0.36-0.119l2.326-1.289l3.49,1.468l-3.325,2.525l-2.223-0.578
	c-0.54-0.138-1.085,0.182-1.225,0.719c-0.139,0.536,0.183,1.084,0.719,1.224l0.693,0.18l-0.798,0.605
	c-0.442,0.335-0.527,0.965-0.192,1.407c0.225,0.296,0.582,0.433,0.927,0.39c0.168-0.021,0.334-0.086,0.479-0.197l1.087-0.825
	l0.021,1.189c0.01,0.554,0.467,0.996,1.021,0.986c0.037,0,0.073-0.003,0.109-0.008c0.502-0.063,0.886-0.496,0.877-1.013
	l-0.047-2.658l3.091-2.347l0.521,4.113l-1.74,1.765c-0.389,0.395-0.384,1.03,0.011,1.42c0.229,0.225,0.536,0.318,0.832,0.281
	c0.215-0.027,0.423-0.125,0.588-0.291l0.63-0.639l0.13,1.024c0.069,0.55,0.571,0.939,1.121,0.87c0.551-0.069,0.94-0.571,0.87-1.122
	l-0.147-1.169l0.886,0.491c0.485,0.27,1.096,0.095,1.365-0.392c0.269-0.485,0.093-1.096-0.392-1.364l-2.171-1.203l-0.511-4.035
	l3.577,1.503l0.615,2.586c0.12,0.503,0.599,0.828,1.102,0.764c0.036-0.005,0.072-0.011,0.107-0.02
	c0.54-0.128,0.873-0.669,0.745-1.209l-0.275-1.158l1.258,0.528c0.168,0.071,0.345,0.092,0.514,0.071
	c0.344-0.043,0.656-0.265,0.8-0.607C348.389,57.175,348.149,56.586,347.638,56.372z"/>
<path fill="#0099FF" d="M277.874,72.753l-0.74-0.674l0.706-0.118c0.546-0.091,0.916-0.609,0.825-1.155
	c-0.092-0.547-0.609-0.915-1.156-0.826l-2.265,0.378l-3.087-2.812l3.609-1.15l2.2,1.491c0.11,0.074,0.228,0.124,0.349,0.15
	c0.389,0.085,0.809-0.068,1.046-0.418c0.311-0.459,0.191-1.083-0.268-1.394L278.2,65.62l1.324-0.422
	c0.529-0.168,0.82-0.733,0.651-1.262c-0.167-0.527-0.731-0.82-1.261-0.652l-1.258,0.401l0.266-0.794
	c0.176-0.525-0.108-1.094-0.634-1.271c-0.518-0.178-1.094,0.108-1.27,0.634l-0.731,2.186l-3.739,1.192l0.814-3.73l2.229-1.081
	c0.499-0.243,0.707-0.843,0.465-1.342c-0.242-0.498-0.84-0.707-1.342-0.465l-0.806,0.392l0.29-1.328
	c0.119-0.542-0.225-1.077-0.766-1.195c-0.542-0.118-1.077,0.225-1.195,0.767l-0.321,1.472l-0.672-0.759
	c-0.368-0.415-1.002-0.453-1.417-0.087c-0.415,0.368-0.454,1.002-0.087,1.417l1.645,1.86l-0.798,3.652l-2.902-2.643l0.246-2.292
	c0.06-0.552-0.334-1.048-0.891-1.105c-0.552-0.059-1.046,0.34-1.105,0.891l-0.088,0.832l-0.977-0.889
	c-0.411-0.375-1.044-0.343-1.418,0.066c-0.373,0.41-0.344,1.045,0.066,1.418l1.028,0.936l-1.064,0.177
	c-0.546,0.091-0.916,0.608-0.825,1.155c0.07,0.417,0.387,0.731,0.776,0.816c0.121,0.027,0.25,0.031,0.38,0.009l2.623-0.438l2.8,2.55
	l-3.979,1.268l-1.901-1.287c-0.463-0.311-1.084-0.191-1.395,0.268c-0.31,0.459-0.191,1.083,0.268,1.394l0.593,0.401l-0.954,0.304
	c-0.529,0.168-0.82,0.733-0.652,1.262c0.113,0.354,0.404,0.603,0.743,0.677c0.166,0.036,0.344,0.03,0.518-0.025l1.3-0.415
	l-0.378,1.127c-0.176,0.526,0.107,1.095,0.633,1.271c0.036,0.012,0.07,0.021,0.106,0.029c0.494,0.108,1.001-0.171,1.165-0.662
	l0.845-2.521l3.698-1.179l-0.884,4.05l-2.229,1.082c-0.499,0.243-0.707,0.843-0.465,1.342c0.14,0.288,0.399,0.479,0.69,0.543
	c0.212,0.046,0.441,0.024,0.652-0.078l0.807-0.392l-0.22,1.009c-0.118,0.542,0.225,1.076,0.767,1.195
	c0.542,0.118,1.077-0.225,1.195-0.767l0.251-1.151l0.671,0.759c0.367,0.417,1.001,0.455,1.417,0.087
	c0.415-0.367,0.454-1.002,0.087-1.417l-1.644-1.859l0.868-3.974l2.869,2.613l-0.285,2.643c-0.055,0.515,0.288,0.98,0.783,1.088
	c0.035,0.008,0.071,0.013,0.107,0.017c0.552,0.06,1.047-0.339,1.106-0.89l0.127-1.183l1.009,0.918
	c0.135,0.123,0.294,0.202,0.46,0.239c0.339,0.074,0.708-0.03,0.958-0.305C278.313,73.762,278.284,73.126,277.874,72.753z"/>
<g>
	<path fill="#0099FF" d="M305.834,79.374c38.984,0,70.701,31.716,70.701,70.701s-31.717,70.701-70.701,70.701
		s-70.701-31.716-70.701-70.701S266.85,79.374,305.834,79.374 M305.834,75.374c-41.256,0-74.701,33.445-74.701,74.701
		s33.445,74.701,74.701,74.701c41.257,0,74.701-33.445,74.701-74.701S347.091,75.374,305.834,75.374L305.834,75.374z"/>
</g>
</svg>
